<?xml version="1.0" standalone="no"?>
<!DOCTYPE svg PUBLIC "-//W3C//DTD SVG 20010904//EN"
 "http://www.w3.org/TR/2001/REC-SVG-20010904/DTD/svg10.dtd">
<svg version="1.0" xmlns="http://www.w3.org/2000/svg"
 width="800.000000pt" height="600.000000pt" viewBox="0 0 800.000000 600.000000"
 preserveAspectRatio="xMidYMid meet">

<g transform="translate(0.000000,600.000000) scale(0.100000,-0.100000)"
fill="#000000" stroke="none">
<path d="M0 3000 l0 -3000 3482 2 3483 3 0 2997 0 2998 -3482 0 -3483 0 0
-3000z m6955 -1 l0 -2986 -25 2 -25 1 0 2985 0 2986 25 -2 25 -1 0 -2985z
m-3827 817 c37 -19 68 -55 87 -98 13 -32 15 -109 15 -545 0 -473 -2 -511 -19
-548 -21 -46 -54 -79 -94 -94 -17 -7 -117 -11 -248 -11 l-219 0 0 655 0 655
225 0 c175 0 232 -3 253 -14z m462 -1191 l0 -105 -105 0 -105 0 0 105 0 105
105 0 105 0 0 -105z m70 -295 l0 -90 -540 0 -540 0 0 90 0 90 540 0 540 0 0
-90z"/>
<path d="M6919 5976 c-1 -1 -2 -1340 -3 -2977 -1 -2641 1 -2976 14 -2974 13 2
15 340 15 2977 0 2913 -1 2991 -26 2974z m16 -2981 c0 -1630 -2 -2961 -5
-2958 -3 2 -5 1338 -5 2968 0 1630 2 2961 5 2958 3 -2 5 -1338 5 -2968z"/>
<path d="M2860 3175 l0 -455 80 0 80 0 0 455 0 455 -80 0 -80 0 0 -455z"/>
</g>
</svg>
