<?xml version="1.0" encoding="UTF-8"?>
<!DOCTYPE svg PUBLIC "-//W3C//DTD SVG 1.1//EN" "http://www.w3.org/Graphics/SVG/1.1/DTD/svg11.dtd">
<svg xmlns="http://www.w3.org/2000/svg" version="1.1" width="800px" height="600px" style="shape-rendering:geometricPrecision; text-rendering:geometricPrecision; image-rendering:optimizeQuality; fill-rule:evenodd; clip-rule:evenodd" xmlns:xlink="http://www.w3.org/1999/xlink">
<g><path style="opacity:1" fill="#024aad" d="M -0.5,-0.5 C 8.5,-0.5 17.5,-0.5 26.5,-0.5C 26.1667,199.5 25.8333,399.5 25.5,599.5C 16.8333,599.5 8.16667,599.5 -0.5,599.5C -0.5,399.5 -0.5,199.5 -0.5,-0.5 Z"/></g>
<g><path style="opacity:1" fill="#0d4cb0" d="M 26.5,-0.5 C 41.8333,-0.5 57.1667,-0.5 72.5,-0.5C 72.1667,199.5 71.8333,399.5 71.5,599.5C 56.1667,599.5 40.8333,599.5 25.5,599.5C 25.8333,399.5 26.1667,199.5 26.5,-0.5 Z"/></g>
<g><path style="opacity:1" fill="#1a4eb4" d="M 72.5,-0.5 C 89.8333,-0.5 107.167,-0.5 124.5,-0.5C 124.167,199.5 123.833,399.5 123.5,599.5C 106.167,599.5 88.8333,599.5 71.5,599.5C 71.8333,399.5 72.1667,199.5 72.5,-0.5 Z"/></g>
<g><path style="opacity:1" fill="#2750b7" d="M 124.5,-0.5 C 142.5,-0.5 160.5,-0.5 178.5,-0.5C 178.082,0.221579 177.416,0.721579 176.5,1C 179.167,1.66667 179.167,2.33333 176.5,3C 179.167,3.66667 179.167,4.33333 176.5,5C 179.167,5.66667 179.167,6.33333 176.5,7C 179.167,7.66667 179.167,8.33333 176.5,9C 179.167,9.66667 179.167,10.3333 176.5,11C 179.167,11.6667 179.167,12.3333 176.5,13C 179.167,13.6667 179.167,14.3333 176.5,15C 179.167,15.6667 179.167,16.3333 176.5,17C 179.167,17.6667 179.167,18.3333 176.5,19C 179.167,19.6667 179.167,20.3333 176.5,21C 179.167,21.6667 179.167,22.3333 176.5,23C 179.167,23.6667 179.167,24.3333 176.5,25C 179.167,25.6667 179.167,26.3333 176.5,27C 179.167,27.6667 179.167,28.3333 176.5,29C 179.167,29.6667 179.167,30.3333 176.5,31C 179.167,31.6667 179.167,32.3333 176.5,33C 179.167,33.6667 179.167,34.3333 176.5,35C 179.167,35.6667 179.167,36.3333 176.5,37C 179.167,37.6667 179.167,38.3333 176.5,39C 179.167,39.6667 179.167,40.3333 176.5,41C 179.167,41.6667 179.167,42.3333 176.5,43C 179.167,43.6667 179.167,44.3333 176.5,45C 179.167,45.6667 179.167,46.3333 176.5,47C 179.167,47.6667 179.167,48.3333 176.5,49C 179.167,49.6667 179.167,50.3333 176.5,51C 179.167,51.6667 179.167,52.3333 176.5,53C 179.167,53.6667 179.167,54.3333 176.5,55C 179.167,55.6667 179.167,56.3333 176.5,57C 179.167,57.6667 179.167,58.3333 176.5,59C 179.167,59.6667 179.167,60.3333 176.5,61C 179.167,61.6667 179.167,62.3333 176.5,63C 179.167,63.6667 179.167,64.3333 176.5,65C 179.167,65.6667 179.167,66.3333 176.5,67C 179.167,67.6667 179.167,68.3333 176.5,69C 179.167,69.6667 179.167,70.3333 176.5,71C 179.167,71.6667 179.167,72.3333 176.5,73C 179.167,73.6667 179.167,74.3333 176.5,75C 179.167,75.6667 179.167,76.3333 176.5,77C 179.167,77.6667 179.167,78.3333 176.5,79C 179.167,79.6667 179.167,80.3333 176.5,81C 179.167,81.6667 179.167,82.3333 176.5,83C 179.167,83.6667 179.167,84.3333 176.5,85C 179.167,85.6667 179.167,86.3333 176.5,87C 179.167,87.6667 179.167,88.3333 176.5,89C 179.167,89.6667 179.167,90.3333 176.5,91C 179.167,91.6667 179.167,92.3333 176.5,93C 179.167,93.6667 179.167,94.3333 176.5,95C 179.167,95.6667 179.167,96.3333 176.5,97C 179.167,97.6667 179.167,98.3333 176.5,99C 179.167,99.6667 179.167,100.333 176.5,101C 179.167,101.667 179.167,102.333 176.5,103C 179.167,103.667 179.167,104.333 176.5,105C 179.167,105.667 179.167,106.333 176.5,107C 179.167,107.667 179.167,108.333 176.5,109C 179.167,109.667 179.167,110.333 176.5,111C 179.167,111.667 179.167,112.333 176.5,113C 179.167,113.667 179.167,114.333 176.5,115C 179.167,115.667 179.167,116.333 176.5,117C 179.167,117.667 179.167,118.333 176.5,119C 179.167,119.667 179.167,120.333 176.5,121C 179.167,121.667 179.167,122.333 176.5,123C 179.167,123.667 179.167,124.333 176.5,125C 179.167,125.667 179.167,126.333 176.5,127C 179.167,127.667 179.167,128.333 176.5,129C 179.167,129.667 179.167,130.333 176.5,131C 179.167,131.667 179.167,132.333 176.5,133C 179.167,133.667 179.167,134.333 176.5,135C 179.167,135.667 179.167,136.333 176.5,137C 179.167,137.667 179.167,138.333 176.5,139C 179.167,139.667 179.167,140.333 176.5,141C 179.167,141.667 179.167,142.333 176.5,143C 179.167,143.667 179.167,144.333 176.5,145C 179.167,145.667 179.167,146.333 176.5,147C 179.167,147.667 179.167,148.333 176.5,149C 179.167,149.667 179.167,150.333 176.5,151C 179.167,151.667 179.167,152.333 176.5,153C 179.167,153.667 179.167,154.333 176.5,155C 179.167,155.667 179.167,156.333 176.5,157C 179.167,157.667 179.167,158.333 176.5,159C 179.167,159.667 179.167,160.333 176.5,161C 179.167,161.667 179.167,162.333 176.5,163C 179.167,163.667 179.167,164.333 176.5,165C 179.167,165.667 179.167,166.333 176.5,167C 179.167,167.667 179.167,168.333 176.5,169C 179.167,169.667 179.167,170.333 176.5,171C 179.167,171.667 179.167,172.333 176.5,173C 179.167,173.667 179.167,174.333 176.5,175C 179.167,175.667 179.167,176.333 176.5,177C 179.167,177.667 179.167,178.333 176.5,179C 179.167,179.667 179.167,180.333 176.5,181C 179.167,181.667 179.167,182.333 176.5,183C 179.167,183.667 179.167,184.333 176.5,185C 179.167,185.667 179.167,186.333 176.5,187C 179.167,187.667 179.167,188.333 176.5,189C 179.167,189.667 179.167,190.333 176.5,191C 179.167,191.667 179.167,192.333 176.5,193C 179.167,193.667 179.167,194.333 176.5,195C 179.167,195.667 179.167,196.333 176.5,197C 179.167,197.667 179.167,198.333 176.5,199C 179.167,199.667 179.167,200.333 176.5,201C 179.167,201.667 179.167,202.333 176.5,203C 179.167,203.667 179.167,204.333 176.5,205C 179.167,205.667 179.167,206.333 176.5,207C 179.167,207.667 179.167,208.333 176.5,209C 179.167,209.667 179.167,210.333 176.5,211C 179.167,211.667 179.167,212.333 176.5,213C 179.167,213.667 179.167,214.333 176.5,215C 179.167,215.667 179.167,216.333 176.5,217C 179.167,217.667 179.167,218.333 176.5,219C 179.167,219.667 179.167,220.333 176.5,221C 179.167,221.667 179.167,222.333 176.5,223C 179.167,223.667 179.167,224.333 176.5,225C 179.167,225.667 179.167,226.333 176.5,227C 179.167,227.667 179.167,228.333 176.5,229C 179.167,229.667 179.167,230.333 176.5,231C 179.167,231.667 179.167,232.333 176.5,233C 179.167,233.667 179.167,234.333 176.5,235C 179.167,235.667 179.167,236.333 176.5,237C 179.167,237.667 179.167,238.333 176.5,239C 179.167,239.667 179.167,240.333 176.5,241C 179.167,241.667 179.167,242.333 176.5,243C 179.167,243.667 179.167,244.333 176.5,245C 179.167,245.667 179.167,246.333 176.5,247C 179.167,247.667 179.167,248.333 176.5,249C 179.167,249.667 179.167,250.333 176.5,251C 179.167,251.667 179.167,252.333 176.5,253C 179.167,253.667 179.167,254.333 176.5,255C 179.167,255.667 179.167,256.333 176.5,257C 179.167,257.667 179.167,258.333 176.5,259C 179.167,259.667 179.167,260.333 176.5,261C 179.167,261.667 179.167,262.333 176.5,263C 179.167,263.667 179.167,264.333 176.5,265C 179.167,265.667 179.167,266.333 176.5,267C 179.167,267.667 179.167,268.333 176.5,269C 179.167,269.667 179.167,270.333 176.5,271C 179.167,271.667 179.167,272.333 176.5,273C 179.167,273.667 179.167,274.333 176.5,275C 179.167,275.667 179.167,276.333 176.5,277C 179.167,277.667 179.167,278.333 176.5,279C 179.167,279.667 179.167,280.333 176.5,281C 179.167,281.667 179.167,282.333 176.5,283C 179.167,283.667 179.167,284.333 176.5,285C 179.167,285.667 179.167,286.333 176.5,287C 179.167,287.667 179.167,288.333 176.5,289C 179.167,289.667 179.167,290.333 176.5,291C 179.167,291.667 179.167,292.333 176.5,293C 179.167,293.667 179.167,294.333 176.5,295C 179.167,295.667 179.167,296.333 176.5,297C 179.167,297.667 179.167,298.333 176.5,299C 179.167,299.667 179.167,300.333 176.5,301C 179.167,301.667 179.167,302.333 176.5,303C 179.167,303.667 179.167,304.333 176.5,305C 179.167,305.667 179.167,306.333 176.5,307C 179.167,307.667 179.167,308.333 176.5,309C 179.167,309.667 179.167,310.333 176.5,311C 179.167,311.667 179.167,312.333 176.5,313C 179.167,313.667 179.167,314.333 176.5,315C 179.167,315.667 179.167,316.333 176.5,317C 179.167,317.667 179.167,318.333 176.5,319C 179.167,319.667 179.167,320.333 176.5,321C 179.167,321.667 179.167,322.333 176.5,323C 179.167,323.667 179.167,324.333 176.5,325C 179.167,325.667 179.167,326.333 176.5,327C 179.167,327.667 179.167,328.333 176.5,329C 179.167,329.667 179.167,330.333 176.5,331C 179.167,331.667 179.167,332.333 176.5,333C 179.167,333.667 179.167,334.333 176.5,335C 179.167,335.667 179.167,336.333 176.5,337C 179.167,337.667 179.167,338.333 176.5,339C 179.167,339.667 179.167,340.333 176.5,341C 179.167,341.667 179.167,342.333 176.5,343C 179.167,343.667 179.167,344.333 176.5,345C 179.167,345.667 179.167,346.333 176.5,347C 179.167,347.667 179.167,348.333 176.5,349C 179.167,349.667 179.167,350.333 176.5,351C 179.167,351.667 179.167,352.333 176.5,353C 179.167,353.667 179.167,354.333 176.5,355C 179.167,355.667 179.167,356.333 176.5,357C 179.167,357.667 179.167,358.333 176.5,359C 179.167,359.667 179.167,360.333 176.5,361C 179.167,361.667 179.167,362.333 176.5,363C 179.167,363.667 179.167,364.333 176.5,365C 179.167,365.667 179.167,366.333 176.5,367C 179.167,367.667 179.167,368.333 176.5,369C 179.167,369.667 179.167,370.333 176.5,371C 179.167,371.667 179.167,372.333 176.5,373C 179.167,373.667 179.167,374.333 176.5,375C 179.167,375.667 179.167,376.333 176.5,377C 179.167,377.667 179.167,378.333 176.5,379C 179.167,379.667 179.167,380.333 176.5,381C 179.167,381.667 179.167,382.333 176.5,383C 179.167,383.667 179.167,384.333 176.5,385C 179.167,385.667 179.167,386.333 176.5,387C 179.167,387.667 179.167,388.333 176.5,389C 179.167,389.667 179.167,390.333 176.5,391C 179.167,391.667 179.167,392.333 176.5,393C 179.167,393.667 179.167,394.333 176.5,395C 179.167,395.667 179.167,396.333 176.5,397C 179.167,397.667 179.167,398.333 176.5,399C 179.167,399.667 179.167,400.333 176.5,401C 179.167,401.667 179.167,402.333 176.5,403C 179.167,403.667 179.167,404.333 176.5,405C 179.167,405.667 179.167,406.333 176.5,407C 179.167,407.667 179.167,408.333 176.5,409C 179.167,409.667 179.167,410.333 176.5,411C 179.167,411.667 179.167,412.333 176.5,413C 179.167,413.667 179.167,414.333 176.5,415C 179.167,415.667 179.167,416.333 176.5,417C 179.167,417.667 179.167,418.333 176.5,419C 179.167,419.667 179.167,420.333 176.5,421C 179.167,421.667 179.167,422.333 176.5,423C 179.167,423.667 179.167,424.333 176.5,425C 179.167,425.667 179.167,426.333 176.5,427C 179.167,427.667 179.167,428.333 176.5,429C 179.167,429.667 179.167,430.333 176.5,431C 179.167,431.667 179.167,432.333 176.5,433C 179.167,433.667 179.167,434.333 176.5,435C 179.167,435.667 179.167,436.333 176.5,437C 179.167,437.667 179.167,438.333 176.5,439C 179.167,439.667 179.167,440.333 176.5,441C 179.167,441.667 179.167,442.333 176.5,443C 179.167,443.667 179.167,444.333 176.5,445C 179.167,445.667 179.167,446.333 176.5,447C 179.167,447.667 179.167,448.333 176.5,449C 179.167,449.667 179.167,450.333 176.5,451C 179.167,451.667 179.167,452.333 176.5,453C 179.167,453.667 179.167,454.333 176.5,455C 179.167,455.667 179.167,456.333 176.5,457C 179.167,457.667 179.167,458.333 176.5,459C 179.167,459.667 179.167,460.333 176.5,461C 179.167,461.667 179.167,462.333 176.5,463C 179.167,463.667 179.167,464.333 176.5,465C 179.167,465.667 179.167,466.333 176.5,467C 179.167,467.667 179.167,468.333 176.5,469C 179.167,469.667 179.167,470.333 176.5,471C 179.167,471.667 179.167,472.333 176.5,473C 179.167,473.667 179.167,474.333 176.5,475C 179.167,475.667 179.167,476.333 176.5,477C 179.167,477.667 179.167,478.333 176.5,479C 179.167,479.667 179.167,480.333 176.5,481C 179.167,481.667 179.167,482.333 176.5,483C 179.167,483.667 179.167,484.333 176.5,485C 179.167,485.667 179.167,486.333 176.5,487C 179.167,487.667 179.167,488.333 176.5,489C 179.167,489.667 179.167,490.333 176.5,491C 179.167,491.667 179.167,492.333 176.5,493C 179.167,493.667 179.167,494.333 176.5,495C 179.167,495.667 179.167,496.333 176.5,497C 179.167,497.667 179.167,498.333 176.5,499C 179.167,499.667 179.167,500.333 176.5,501C 179.167,501.667 179.167,502.333 176.5,503C 179.167,503.667 179.167,504.333 176.5,505C 179.167,505.667 179.167,506.333 176.5,507C 179.167,507.667 179.167,508.333 176.5,509C 179.167,509.667 179.167,510.333 176.5,511C 179.167,511.667 179.167,512.333 176.5,513C 179.167,513.667 179.167,514.333 176.5,515C 179.167,515.667 179.167,516.333 176.5,517C 179.167,517.667 179.167,518.333 176.5,519C 179.167,519.667 179.167,520.333 176.5,521C 179.167,521.667 179.167,522.333 176.5,523C 179.167,523.667 179.167,524.333 176.5,525C 179.167,525.667 179.167,526.333 176.5,527C 179.167,527.667 179.167,528.333 176.5,529C 179.167,529.667 179.167,530.333 176.5,531C 179.167,531.667 179.167,532.333 176.5,533C 179.167,533.667 179.167,534.333 176.5,535C 179.167,535.667 179.167,536.333 176.5,537C 179.167,537.667 179.167,538.333 176.5,539C 179.167,539.667 179.167,540.333 176.5,541C 179.167,541.667 179.167,542.333 176.5,543C 179.167,543.667 179.167,544.333 176.5,545C 179.167,545.667 179.167,546.333 176.5,547C 179.167,547.667 179.167,548.333 176.5,549C 179.167,549.667 179.167,550.333 176.5,551C 179.167,551.667 179.167,552.333 176.5,553C 179.167,553.667 179.167,554.333 176.5,555C 179.167,555.667 179.167,556.333 176.5,557C 179.167,557.667 179.167,558.333 176.5,559C 179.167,559.667 179.167,560.333 176.5,561C 179.167,561.667 179.167,562.333 176.5,563C 179.167,563.667 179.167,564.333 176.5,565C 179.167,565.667 179.167,566.333 176.5,567C 179.167,567.667 179.167,568.333 176.5,569C 179.167,569.667 179.167,570.333 176.5,571C 179.167,571.667 179.167,572.333 176.5,573C 179.167,573.667 179.167,574.333 176.5,575C 179.167,575.667 179.167,576.333 176.5,577C 179.167,577.667 179.167,578.333 176.5,579C 179.167,579.667 179.167,580.333 176.5,581C 179.167,581.667 179.167,582.333 176.5,583C 179.167,583.667 179.167,584.333 176.5,585C 179.167,585.667 179.167,586.333 176.5,587C 179.167,587.667 179.167,588.333 176.5,589C 179.167,589.667 179.167,590.333 176.5,591C 179.167,591.667 179.167,592.333 176.5,593C 179.167,593.667 179.167,594.333 176.5,595C 179.167,595.667 179.167,596.333 176.5,597C 177.167,597.333 177.833,597.667 178.5,598C 177.584,598.278 176.918,598.778 176.5,599.5C 158.833,599.5 141.167,599.5 123.5,599.5C 123.833,399.5 124.167,199.5 124.5,-0.5 Z"/></g>
<g><path style="opacity:1" fill="#3052ba" d="M 178.5,-0.5 C 187.167,-0.5 195.833,-0.5 204.5,-0.5C 204.167,199.5 203.833,399.5 203.5,599.5C 194.5,599.5 185.5,599.5 176.5,599.5C 176.918,598.778 177.584,598.278 178.5,598C 177.833,597.667 177.167,597.333 176.5,597C 179.167,596.333 179.167,595.667 176.5,595C 179.167,594.333 179.167,593.667 176.5,593C 179.167,592.333 179.167,591.667 176.5,591C 179.167,590.333 179.167,589.667 176.5,589C 179.167,588.333 179.167,587.667 176.5,587C 179.167,586.333 179.167,585.667 176.5,585C 179.167,584.333 179.167,583.667 176.5,583C 179.167,582.333 179.167,581.667 176.5,581C 179.167,580.333 179.167,579.667 176.5,579C 179.167,578.333 179.167,577.667 176.5,577C 179.167,576.333 179.167,575.667 176.5,575C 179.167,574.333 179.167,573.667 176.5,573C 179.167,572.333 179.167,571.667 176.5,571C 179.167,570.333 179.167,569.667 176.5,569C 179.167,568.333 179.167,567.667 176.5,567C 179.167,566.333 179.167,565.667 176.5,565C 179.167,564.333 179.167,563.667 176.5,563C 179.167,562.333 179.167,561.667 176.5,561C 179.167,560.333 179.167,559.667 176.5,559C 179.167,558.333 179.167,557.667 176.5,557C 179.167,556.333 179.167,555.667 176.5,555C 179.167,554.333 179.167,553.667 176.5,553C 179.167,552.333 179.167,551.667 176.5,551C 179.167,550.333 179.167,549.667 176.5,549C 179.167,548.333 179.167,547.667 176.5,547C 179.167,546.333 179.167,545.667 176.5,545C 179.167,544.333 179.167,543.667 176.5,543C 179.167,542.333 179.167,541.667 176.5,541C 179.167,540.333 179.167,539.667 176.5,539C 179.167,538.333 179.167,537.667 176.5,537C 179.167,536.333 179.167,535.667 176.5,535C 179.167,534.333 179.167,533.667 176.5,533C 179.167,532.333 179.167,531.667 176.5,531C 179.167,530.333 179.167,529.667 176.5,529C 179.167,528.333 179.167,527.667 176.5,527C 179.167,526.333 179.167,525.667 176.5,525C 179.167,524.333 179.167,523.667 176.5,523C 179.167,522.333 179.167,521.667 176.5,521C 179.167,520.333 179.167,519.667 176.5,519C 179.167,518.333 179.167,517.667 176.5,517C 179.167,516.333 179.167,515.667 176.5,515C 179.167,514.333 179.167,513.667 176.5,513C 179.167,512.333 179.167,511.667 176.5,511C 179.167,510.333 179.167,509.667 176.5,509C 179.167,508.333 179.167,507.667 176.5,507C 179.167,506.333 179.167,505.667 176.5,505C 179.167,504.333 179.167,503.667 176.5,503C 179.167,502.333 179.167,501.667 176.5,501C 179.167,500.333 179.167,499.667 176.5,499C 179.167,498.333 179.167,497.667 176.5,497C 179.167,496.333 179.167,495.667 176.5,495C 179.167,494.333 179.167,493.667 176.5,493C 179.167,492.333 179.167,491.667 176.5,491C 179.167,490.333 179.167,489.667 176.5,489C 179.167,488.333 179.167,487.667 176.5,487C 179.167,486.333 179.167,485.667 176.5,485C 179.167,484.333 179.167,483.667 176.5,483C 179.167,482.333 179.167,481.667 176.5,481C 179.167,480.333 179.167,479.667 176.5,479C 179.167,478.333 179.167,477.667 176.5,477C 179.167,476.333 179.167,475.667 176.5,475C 179.167,474.333 179.167,473.667 176.5,473C 179.167,472.333 179.167,471.667 176.5,471C 179.167,470.333 179.167,469.667 176.5,469C 179.167,468.333 179.167,467.667 176.5,467C 179.167,466.333 179.167,465.667 176.5,465C 179.167,464.333 179.167,463.667 176.5,463C 179.167,462.333 179.167,461.667 176.5,461C 179.167,460.333 179.167,459.667 176.5,459C 179.167,458.333 179.167,457.667 176.5,457C 179.167,456.333 179.167,455.667 176.5,455C 179.167,454.333 179.167,453.667 176.5,453C 179.167,452.333 179.167,451.667 176.5,451C 179.167,450.333 179.167,449.667 176.5,449C 179.167,448.333 179.167,447.667 176.5,447C 179.167,446.333 179.167,445.667 176.5,445C 179.167,444.333 179.167,443.667 176.5,443C 179.167,442.333 179.167,441.667 176.5,441C 179.167,440.333 179.167,439.667 176.5,439C 179.167,438.333 179.167,437.667 176.5,437C 179.167,436.333 179.167,435.667 176.5,435C 179.167,434.333 179.167,433.667 176.5,433C 179.167,432.333 179.167,431.667 176.5,431C 179.167,430.333 179.167,429.667 176.5,429C 179.167,428.333 179.167,427.667 176.5,427C 179.167,426.333 179.167,425.667 176.5,425C 179.167,424.333 179.167,423.667 176.5,423C 179.167,422.333 179.167,421.667 176.5,421C 179.167,420.333 179.167,419.667 176.5,419C 179.167,418.333 179.167,417.667 176.5,417C 179.167,416.333 179.167,415.667 176.5,415C 179.167,414.333 179.167,413.667 176.5,413C 179.167,412.333 179.167,411.667 176.5,411C 179.167,410.333 179.167,409.667 176.5,409C 179.167,408.333 179.167,407.667 176.5,407C 179.167,406.333 179.167,405.667 176.5,405C 179.167,404.333 179.167,403.667 176.5,403C 179.167,402.333 179.167,401.667 176.5,401C 179.167,400.333 179.167,399.667 176.5,399C 179.167,398.333 179.167,397.667 176.5,397C 179.167,396.333 179.167,395.667 176.5,395C 179.167,394.333 179.167,393.667 176.5,393C 179.167,392.333 179.167,391.667 176.5,391C 179.167,390.333 179.167,389.667 176.5,389C 179.167,388.333 179.167,387.667 176.5,387C 179.167,386.333 179.167,385.667 176.5,385C 179.167,384.333 179.167,383.667 176.5,383C 179.167,382.333 179.167,381.667 176.5,381C 179.167,380.333 179.167,379.667 176.5,379C 179.167,378.333 179.167,377.667 176.5,377C 179.167,376.333 179.167,375.667 176.5,375C 179.167,374.333 179.167,373.667 176.5,373C 179.167,372.333 179.167,371.667 176.5,371C 179.167,370.333 179.167,369.667 176.5,369C 179.167,368.333 179.167,367.667 176.5,367C 179.167,366.333 179.167,365.667 176.5,365C 179.167,364.333 179.167,363.667 176.5,363C 179.167,362.333 179.167,361.667 176.5,361C 179.167,360.333 179.167,359.667 176.5,359C 179.167,358.333 179.167,357.667 176.5,357C 179.167,356.333 179.167,355.667 176.5,355C 179.167,354.333 179.167,353.667 176.5,353C 179.167,352.333 179.167,351.667 176.5,351C 179.167,350.333 179.167,349.667 176.5,349C 179.167,348.333 179.167,347.667 176.5,347C 179.167,346.333 179.167,345.667 176.5,345C 179.167,344.333 179.167,343.667 176.5,343C 179.167,342.333 179.167,341.667 176.5,341C 179.167,340.333 179.167,339.667 176.5,339C 179.167,338.333 179.167,337.667 176.5,337C 179.167,336.333 179.167,335.667 176.5,335C 179.167,334.333 179.167,333.667 176.5,333C 179.167,332.333 179.167,331.667 176.5,331C 179.167,330.333 179.167,329.667 176.5,329C 179.167,328.333 179.167,327.667 176.5,327C 179.167,326.333 179.167,325.667 176.5,325C 179.167,324.333 179.167,323.667 176.5,323C 179.167,322.333 179.167,321.667 176.5,321C 179.167,320.333 179.167,319.667 176.5,319C 179.167,318.333 179.167,317.667 176.5,317C 179.167,316.333 179.167,315.667 176.5,315C 179.167,314.333 179.167,313.667 176.5,313C 179.167,312.333 179.167,311.667 176.5,311C 179.167,310.333 179.167,309.667 176.5,309C 179.167,308.333 179.167,307.667 176.5,307C 179.167,306.333 179.167,305.667 176.5,305C 179.167,304.333 179.167,303.667 176.5,303C 179.167,302.333 179.167,301.667 176.5,301C 179.167,300.333 179.167,299.667 176.5,299C 179.167,298.333 179.167,297.667 176.5,297C 179.167,296.333 179.167,295.667 176.5,295C 179.167,294.333 179.167,293.667 176.5,293C 179.167,292.333 179.167,291.667 176.5,291C 179.167,290.333 179.167,289.667 176.5,289C 179.167,288.333 179.167,287.667 176.5,287C 179.167,286.333 179.167,285.667 176.5,285C 179.167,284.333 179.167,283.667 176.5,283C 179.167,282.333 179.167,281.667 176.5,281C 179.167,280.333 179.167,279.667 176.5,279C 179.167,278.333 179.167,277.667 176.5,277C 179.167,276.333 179.167,275.667 176.5,275C 179.167,274.333 179.167,273.667 176.5,273C 179.167,272.333 179.167,271.667 176.5,271C 179.167,270.333 179.167,269.667 176.5,269C 179.167,268.333 179.167,267.667 176.5,267C 179.167,266.333 179.167,265.667 176.5,265C 179.167,264.333 179.167,263.667 176.5,263C 179.167,262.333 179.167,261.667 176.5,261C 179.167,260.333 179.167,259.667 176.5,259C 179.167,258.333 179.167,257.667 176.5,257C 179.167,256.333 179.167,255.667 176.5,255C 179.167,254.333 179.167,253.667 176.5,253C 179.167,252.333 179.167,251.667 176.5,251C 179.167,250.333 179.167,249.667 176.5,249C 179.167,248.333 179.167,247.667 176.5,247C 179.167,246.333 179.167,245.667 176.5,245C 179.167,244.333 179.167,243.667 176.5,243C 179.167,242.333 179.167,241.667 176.5,241C 179.167,240.333 179.167,239.667 176.5,239C 179.167,238.333 179.167,237.667 176.5,237C 179.167,236.333 179.167,235.667 176.5,235C 179.167,234.333 179.167,233.667 176.5,233C 179.167,232.333 179.167,231.667 176.5,231C 179.167,230.333 179.167,229.667 176.5,229C 179.167,228.333 179.167,227.667 176.5,227C 179.167,226.333 179.167,225.667 176.5,225C 179.167,224.333 179.167,223.667 176.5,223C 179.167,222.333 179.167,221.667 176.5,221C 179.167,220.333 179.167,219.667 176.5,219C 179.167,218.333 179.167,217.667 176.5,217C 179.167,216.333 179.167,215.667 176.5,215C 179.167,214.333 179.167,213.667 176.5,213C 179.167,212.333 179.167,211.667 176.5,211C 179.167,210.333 179.167,209.667 176.5,209C 179.167,208.333 179.167,207.667 176.5,207C 179.167,206.333 179.167,205.667 176.5,205C 179.167,204.333 179.167,203.667 176.5,203C 179.167,202.333 179.167,201.667 176.5,201C 179.167,200.333 179.167,199.667 176.5,199C 179.167,198.333 179.167,197.667 176.5,197C 179.167,196.333 179.167,195.667 176.5,195C 179.167,194.333 179.167,193.667 176.5,193C 179.167,192.333 179.167,191.667 176.5,191C 179.167,190.333 179.167,189.667 176.5,189C 179.167,188.333 179.167,187.667 176.5,187C 179.167,186.333 179.167,185.667 176.5,185C 179.167,184.333 179.167,183.667 176.5,183C 179.167,182.333 179.167,181.667 176.5,181C 179.167,180.333 179.167,179.667 176.5,179C 179.167,178.333 179.167,177.667 176.5,177C 179.167,176.333 179.167,175.667 176.5,175C 179.167,174.333 179.167,173.667 176.5,173C 179.167,172.333 179.167,171.667 176.5,171C 179.167,170.333 179.167,169.667 176.5,169C 179.167,168.333 179.167,167.667 176.5,167C 179.167,166.333 179.167,165.667 176.5,165C 179.167,164.333 179.167,163.667 176.5,163C 179.167,162.333 179.167,161.667 176.5,161C 179.167,160.333 179.167,159.667 176.5,159C 179.167,158.333 179.167,157.667 176.5,157C 179.167,156.333 179.167,155.667 176.5,155C 179.167,154.333 179.167,153.667 176.5,153C 179.167,152.333 179.167,151.667 176.5,151C 179.167,150.333 179.167,149.667 176.5,149C 179.167,148.333 179.167,147.667 176.5,147C 179.167,146.333 179.167,145.667 176.5,145C 179.167,144.333 179.167,143.667 176.5,143C 179.167,142.333 179.167,141.667 176.5,141C 179.167,140.333 179.167,139.667 176.5,139C 179.167,138.333 179.167,137.667 176.5,137C 179.167,136.333 179.167,135.667 176.5,135C 179.167,134.333 179.167,133.667 176.5,133C 179.167,132.333 179.167,131.667 176.5,131C 179.167,130.333 179.167,129.667 176.5,129C 179.167,128.333 179.167,127.667 176.5,127C 179.167,126.333 179.167,125.667 176.5,125C 179.167,124.333 179.167,123.667 176.5,123C 179.167,122.333 179.167,121.667 176.5,121C 179.167,120.333 179.167,119.667 176.5,119C 179.167,118.333 179.167,117.667 176.5,117C 179.167,116.333 179.167,115.667 176.5,115C 179.167,114.333 179.167,113.667 176.5,113C 179.167,112.333 179.167,111.667 176.5,111C 179.167,110.333 179.167,109.667 176.5,109C 179.167,108.333 179.167,107.667 176.5,107C 179.167,106.333 179.167,105.667 176.5,105C 179.167,104.333 179.167,103.667 176.5,103C 179.167,102.333 179.167,101.667 176.5,101C 179.167,100.333 179.167,99.6667 176.5,99C 179.167,98.3333 179.167,97.6667 176.5,97C 179.167,96.3333 179.167,95.6667 176.5,95C 179.167,94.3333 179.167,93.6667 176.5,93C 179.167,92.3333 179.167,91.6667 176.5,91C 179.167,90.3333 179.167,89.6667 176.5,89C 179.167,88.3333 179.167,87.6667 176.5,87C 179.167,86.3333 179.167,85.6667 176.5,85C 179.167,84.3333 179.167,83.6667 176.5,83C 179.167,82.3333 179.167,81.6667 176.5,81C 179.167,80.3333 179.167,79.6667 176.5,79C 179.167,78.3333 179.167,77.6667 176.5,77C 179.167,76.3333 179.167,75.6667 176.5,75C 179.167,74.3333 179.167,73.6667 176.5,73C 179.167,72.3333 179.167,71.6667 176.5,71C 179.167,70.3333 179.167,69.6667 176.5,69C 179.167,68.3333 179.167,67.6667 176.5,67C 179.167,66.3333 179.167,65.6667 176.5,65C 179.167,64.3333 179.167,63.6667 176.5,63C 179.167,62.3333 179.167,61.6667 176.5,61C 179.167,60.3333 179.167,59.6667 176.5,59C 179.167,58.3333 179.167,57.6667 176.5,57C 179.167,56.3333 179.167,55.6667 176.5,55C 179.167,54.3333 179.167,53.6667 176.5,53C 179.167,52.3333 179.167,51.6667 176.5,51C 179.167,50.3333 179.167,49.6667 176.5,49C 179.167,48.3333 179.167,47.6667 176.5,47C 179.167,46.3333 179.167,45.6667 176.5,45C 179.167,44.3333 179.167,43.6667 176.5,43C 179.167,42.3333 179.167,41.6667 176.5,41C 179.167,40.3333 179.167,39.6667 176.5,39C 179.167,38.3333 179.167,37.6667 176.5,37C 179.167,36.3333 179.167,35.6667 176.5,35C 179.167,34.3333 179.167,33.6667 176.5,33C 179.167,32.3333 179.167,31.6667 176.5,31C 179.167,30.3333 179.167,29.6667 176.5,29C 179.167,28.3333 179.167,27.6667 176.5,27C 179.167,26.3333 179.167,25.6667 176.5,25C 179.167,24.3333 179.167,23.6667 176.5,23C 179.167,22.3333 179.167,21.6667 176.5,21C 179.167,20.3333 179.167,19.6667 176.5,19C 179.167,18.3333 179.167,17.6667 176.5,17C 179.167,16.3333 179.167,15.6667 176.5,15C 179.167,14.3333 179.167,13.6667 176.5,13C 179.167,12.3333 179.167,11.6667 176.5,11C 179.167,10.3333 179.167,9.66667 176.5,9C 179.167,8.33333 179.167,7.66667 176.5,7C 179.167,6.33333 179.167,5.66667 176.5,5C 179.167,4.33333 179.167,3.66667 176.5,3C 179.167,2.33333 179.167,1.66667 176.5,1C 177.416,0.721579 178.082,0.221579 178.5,-0.5 Z"/></g>
<g><path style="opacity:1" fill="#3953bd" d="M 204.5,-0.5 C 218.5,-0.5 232.5,-0.5 246.5,-0.5C 246.167,199.5 245.833,399.5 245.5,599.5C 231.5,599.5 217.5,599.5 203.5,599.5C 203.833,399.5 204.167,199.5 204.5,-0.5 Z"/></g>
<g><path style="opacity:1" fill="#4355bf" d="M 246.5,-0.5 C 262.5,-0.5 278.5,-0.5 294.5,-0.5C 293.931,71.3816 293.598,143.215 293.5,215C 297.688,215.176 301.688,215.676 305.5,216.5C 291.833,216.5 278.167,216.5 264.5,216.5C 264.5,260.167 264.5,303.833 264.5,347.5C 266.5,347.5 268.5,347.5 270.5,347.5C 270.5,349.167 270.5,350.833 270.5,352.5C 272.5,352.5 274.5,352.5 276.5,352.5C 276.5,353.833 276.5,355.167 276.5,356.5C 278.167,356.5 279.833,356.5 281.5,356.5C 281.5,356.833 281.5,357.167 281.5,357.5C 273.5,357.5 265.5,357.5 257.5,357.5C 257.5,363.5 257.5,369.5 257.5,375.5C 259.5,375.5 261.5,375.5 263.5,375.5C 263.5,377.167 263.5,378.833 263.5,380.5C 265.5,380.5 267.5,380.5 269.5,380.5C 269.5,381.833 269.5,383.167 269.5,384.5C 277.657,385.329 285.99,385.829 294.5,386C 293.931,457.117 293.597,528.284 293.5,599.5C 277.5,599.5 261.5,599.5 245.5,599.5C 245.833,399.5 246.167,199.5 246.5,-0.5 Z"/></g>
<g><path style="opacity:1" fill="#5257c4" d="M 294.5,-0.5 C 311.167,-0.5 327.833,-0.5 344.5,-0.5C 343.167,108.5 343.167,217.5 344.5,326.5C 342.167,326.5 339.833,326.5 337.5,326.5C 337.5,333.5 337.5,340.5 337.5,347.5C 339.5,347.5 341.5,347.5 343.5,347.5C 343.5,349.167 343.5,350.833 343.5,352.5C 345.5,352.5 347.5,352.5 349.5,352.5C 349.5,353.833 349.5,355.167 349.5,356.5C 355.5,356.5 361.5,356.5 367.5,356.5C 367.5,356.833 367.5,357.167 367.5,357.5C 366.833,357.5 366.167,357.5 365.5,357.5C 337.5,357.5 309.5,357.5 281.5,357.5C 281.5,357.167 281.5,356.833 281.5,356.5C 295.171,356.667 308.837,356.5 322.5,356C 328.088,353.414 331.921,349.247 334,343.5C 334.667,308.167 334.667,272.833 334,237.5C 331.65,232.652 328.15,228.985 323.5,226.5C 322.542,226.047 321.708,225.381 321,224.5C 320.601,224.728 320.435,225.062 320.5,225.5C 317.244,219.701 312.244,216.701 305.5,216.5C 301.688,215.676 297.688,215.176 293.5,215C 293.598,143.215 293.931,71.3816 294.5,-0.5 Z"/></g>
<g><path style="opacity:1" fill="#5c59c6" d="M 344.5,-0.5 C 360.5,-0.5 376.5,-0.5 392.5,-0.5C 391.931,71.3816 391.598,143.215 391.5,215C 399.011,215.171 406.345,215.671 413.5,216.5C 404.161,216.334 394.827,216.5 385.5,217C 380.065,218.769 376.232,222.269 374,227.5C 373.5,267.499 373.333,307.499 373.5,347.5C 375.5,347.5 377.5,347.5 379.5,347.5C 379.5,349.167 379.5,350.833 379.5,352.5C 381.5,352.5 383.5,352.5 385.5,352.5C 385.5,353.833 385.5,355.167 385.5,356.5C 392.5,356.5 399.5,356.5 406.5,356.5C 406.333,340.83 406.5,325.163 407,309.5C 407.708,308.619 408.542,307.953 409.5,307.5C 409.5,320.833 409.5,334.167 409.5,347.5C 411.833,347.5 414.167,347.5 416.5,347.5C 416.5,349.167 416.5,350.833 416.5,352.5C 418.5,352.5 420.5,352.5 422.5,352.5C 422.5,353.833 422.5,355.167 422.5,356.5C 428.833,356.5 435.167,356.5 441.5,356.5C 441.5,356.833 441.5,357.167 441.5,357.5C 416.833,357.5 392.167,357.5 367.5,357.5C 367.5,357.167 367.5,356.833 367.5,356.5C 368.5,356.5 369.5,356.5 370.5,356.5C 370.5,349.5 370.5,342.5 370.5,335.5C 368.5,335.5 366.5,335.5 364.5,335.5C 364.5,334.167 364.5,332.833 364.5,331.5C 362.5,331.5 360.5,331.5 358.5,331.5C 358.5,329.833 358.5,328.167 358.5,326.5C 353.833,326.5 349.167,326.5 344.5,326.5C 343.167,217.5 343.167,108.5 344.5,-0.5 Z"/></g>
<g><path style="opacity:1" fill="#6b5bca" d="M 392.5,-0.5 C 409.167,-0.5 425.833,-0.5 442.5,-0.5C 441.834,77.9993 441.501,156.333 441.5,234.5C 439.477,231.48 436.81,229.146 433.5,227.5C 432.185,226.524 430.852,225.524 429.5,224.5C 428.893,224.624 428.56,224.957 428.5,225.5C 425.251,219.704 420.251,216.704 413.5,216.5C 406.345,215.671 399.011,215.171 391.5,215C 391.598,143.215 391.931,71.3816 392.5,-0.5 Z"/></g>
<g><path style="opacity:1" fill="#8460d2" d="M 490.5,-0.5 C 507.167,-0.5 523.833,-0.5 540.5,-0.5C 540.501,72.0008 540.167,144.334 539.5,216.5C 539.167,216.5 538.833,216.5 538.5,216.5C 522.338,215.669 506.005,215.169 489.5,215C 489.598,143.215 489.931,71.3816 490.5,-0.5 Z"/></g>
<g><path style="opacity:1" fill="#9562d6" d="M 566.5,-0.5 C 578.167,-0.5 589.833,-0.5 601.5,-0.5C 602.446,199.64 602.446,399.64 601.5,599.5C 589.5,599.5 577.5,599.5 565.5,599.5C 565.833,399.5 566.167,199.5 566.5,-0.5 Z"/></g>
<g><path style="opacity:1" fill="#9e64d9" d="M 601.5,-0.5 C 614.5,-0.5 627.5,-0.5 640.5,-0.5C 640.167,199.5 639.833,399.5 639.5,599.5C 626.833,599.5 614.167,599.5 601.5,599.5C 602.446,399.64 602.446,199.64 601.5,-0.5 Z"/></g>
<g><path style="opacity:1" fill="#a966dc" d="M 640.5,-0.5 C 656.5,-0.5 672.5,-0.5 688.5,-0.5C 688.167,199.5 687.833,399.5 687.5,599.5C 671.5,599.5 655.5,599.5 639.5,599.5C 639.833,399.5 640.167,199.5 640.5,-0.5 Z"/></g>
<g><path style="opacity:1" fill="#b267de" d="M 688.5,-0.5 C 697.167,-0.5 705.833,-0.5 714.5,-0.5C 714.167,199.5 713.833,399.5 713.5,599.5C 704.833,599.5 696.167,599.5 687.5,599.5C 687.833,399.5 688.167,199.5 688.5,-0.5 Z"/></g>
<g><path style="opacity:1" fill="#bc69e1" d="M 714.5,-0.5 C 730.5,-0.5 746.5,-0.5 762.5,-0.5C 762.167,199.5 761.833,399.5 761.5,599.5C 745.5,599.5 729.5,599.5 713.5,599.5C 713.833,399.5 714.167,199.5 714.5,-0.5 Z"/></g>
<g><path style="opacity:1" fill="#c76be5" d="M 762.5,-0.5 C 774.833,-0.5 787.167,-0.5 799.5,-0.5C 799.5,199.5 799.5,399.5 799.5,599.5C 786.833,599.5 774.167,599.5 761.5,599.5C 761.833,399.5 762.167,199.5 762.5,-0.5 Z"/></g>
<g><path style="opacity:1" fill="#765dce" d="M 442.5,-0.5 C 458.5,-0.5 474.5,-0.5 490.5,-0.5C 489.931,71.3816 489.598,143.215 489.5,215C 506.005,215.169 522.338,215.669 538.5,216.5C 517.833,216.5 497.167,216.5 476.5,216.5C 476.5,223.167 476.5,229.833 476.5,236.5C 483.5,236.5 490.5,236.5 497.5,236.5C 497.5,273.5 497.5,310.5 497.5,347.5C 499.5,347.5 501.5,347.5 503.5,347.5C 503.5,349.167 503.5,350.833 503.5,352.5C 505.833,352.5 508.167,352.5 510.5,352.5C 510.5,353.833 510.5,355.167 510.5,356.5C 512.833,356.5 515.167,356.5 517.5,356.5C 517.5,356.833 517.5,357.167 517.5,357.5C 492.167,357.5 466.833,357.5 441.5,357.5C 441.5,357.167 441.5,356.833 441.5,356.5C 442.833,337.345 443.5,317.845 443.5,298C 443.333,278.5 443.167,259 443,239.5C 442.392,237.846 441.892,236.179 441.5,234.5C 441.501,156.333 441.834,77.9993 442.5,-0.5 Z"/></g>
<g><path style="opacity:1" fill="#8c61d4" d="M 540.5,-0.5 C 549.167,-0.5 557.833,-0.5 566.5,-0.5C 566.167,199.5 565.833,399.5 565.5,599.5C 556.833,599.5 548.167,599.5 539.5,599.5C 539.833,528.167 540.167,456.833 540.5,385.5C 545.363,385.819 550.03,385.486 554.5,384.5C 554.5,378.5 554.5,372.5 554.5,366.5C 552.5,366.5 550.5,366.5 548.5,366.5C 548.5,364.833 548.5,363.167 548.5,361.5C 546.5,361.5 544.5,361.5 542.5,361.5C 542.819,366.363 542.486,371.03 541.5,375.5C 541.5,369.5 541.5,363.5 541.5,357.5C 533.5,357.5 525.5,357.5 517.5,357.5C 517.5,357.167 517.5,356.833 517.5,356.5C 521.833,356.5 526.167,356.5 530.5,356.5C 530.5,319.5 530.5,282.5 530.5,245.5C 537.5,245.5 544.5,245.5 551.5,245.5C 551.5,238.833 551.5,232.167 551.5,225.5C 549.5,225.5 547.5,225.5 545.5,225.5C 545.5,224.167 545.5,222.833 545.5,221.5C 543.5,221.5 541.5,221.5 539.5,221.5C 539.5,219.833 539.5,218.167 539.5,216.5C 540.167,144.334 540.501,72.0008 540.5,-0.5 Z"/></g>
<g><path style="opacity:1" fill="#28fc13" d="M 305.5,216.5 C 312.244,216.701 317.244,219.701 320.5,225.5C 321.09,226.766 321.59,228.099 322,229.5C 322.667,264.5 322.667,299.5 322,334.5C 319.894,340.272 316.061,344.438 310.5,347C 297.171,347.5 283.837,347.667 270.5,347.5C 268.5,347.5 266.5,347.5 264.5,347.5C 264.5,303.833 264.5,260.167 264.5,216.5C 278.167,216.5 291.833,216.5 305.5,216.5 Z"/></g>
<g><path style="opacity:1" fill="#010002" d="M 413.5,216.5 C 420.251,216.704 425.251,219.704 428.5,225.5C 428.987,226.473 429.487,227.473 430,228.5C 430.5,268.165 430.667,307.832 430.5,347.5C 425.833,347.5 421.167,347.5 416.5,347.5C 414.167,347.5 411.833,347.5 409.5,347.5C 409.5,334.167 409.5,320.833 409.5,307.5C 409.827,302.456 409.494,297.456 408.5,292.5C 403.426,294.786 398.592,297.453 394,300.5C 393.5,316.163 393.333,331.83 393.5,347.5C 388.833,347.5 384.167,347.5 379.5,347.5C 377.5,347.5 375.5,347.5 373.5,347.5C 373.333,307.499 373.5,267.499 374,227.5C 376.232,222.269 380.065,218.769 385.5,217C 394.827,216.5 404.161,216.334 413.5,216.5 Z"/></g>
<g><path style="opacity:1" fill="#010103" d="M 538.5,216.5 C 538.5,222.833 538.5,229.167 538.5,235.5C 531.646,235.176 524.979,235.509 518.5,236.5C 518.5,273.5 518.5,310.5 518.5,347.5C 513.5,347.5 508.5,347.5 503.5,347.5C 501.5,347.5 499.5,347.5 497.5,347.5C 497.5,310.5 497.5,273.5 497.5,236.5C 490.5,236.5 483.5,236.5 476.5,236.5C 476.5,229.833 476.5,223.167 476.5,216.5C 497.167,216.5 517.833,216.5 538.5,216.5 Z"/></g>
<g><path style="opacity:1" fill="#305aee" d="M 539.5,221.5 C 541.5,221.5 543.5,221.5 545.5,221.5C 545.5,222.833 545.5,224.167 545.5,225.5C 545.5,230.833 545.5,236.167 545.5,241.5C 538.5,241.5 531.5,241.5 524.5,241.5C 524.5,278.5 524.5,315.5 524.5,352.5C 519.833,352.5 515.167,352.5 510.5,352.5C 508.167,352.5 505.833,352.5 503.5,352.5C 503.5,350.833 503.5,349.167 503.5,347.5C 508.5,347.5 513.5,347.5 518.5,347.5C 518.5,310.5 518.5,273.5 518.5,236.5C 525.5,236.5 532.5,236.5 539.5,236.5C 539.5,231.5 539.5,226.5 539.5,221.5 Z"/></g>
<g><path style="opacity:1" fill="#1d57e9" d="M 323.5,226.5 C 325.255,229.009 326.755,231.676 328,234.5C 328.667,269.5 328.667,304.5 328,339.5C 326.283,344.549 323.116,348.382 318.5,351C 304.559,352.429 290.559,352.929 276.5,352.5C 274.5,352.5 272.5,352.5 270.5,352.5C 270.5,350.833 270.5,349.167 270.5,347.5C 283.837,347.667 297.171,347.5 310.5,347C 316.061,344.438 319.894,340.272 322,334.5C 322.667,299.5 322.667,264.5 322,229.5C 321.59,228.099 321.09,226.766 320.5,225.5C 320.435,225.062 320.601,224.728 321,224.5C 321.708,225.381 322.542,226.047 323.5,226.5 Z"/></g>
<g><path style="opacity:1" fill="#2658eb" d="M 433.5,227.5 C 434.511,229.372 435.345,231.372 436,233.5C 436.5,273.165 436.667,312.832 436.5,352.5C 431.833,352.5 427.167,352.5 422.5,352.5C 420.5,352.5 418.5,352.5 416.5,352.5C 416.5,350.833 416.5,349.167 416.5,347.5C 421.167,347.5 425.833,347.5 430.5,347.5C 430.667,307.832 430.5,268.165 430,228.5C 429.487,227.473 428.987,226.473 428.5,225.5C 428.56,224.957 428.893,224.624 429.5,224.5C 430.852,225.524 432.185,226.524 433.5,227.5 Z"/></g>
<g><path style="opacity:1" fill="#4e5adb" d="M 433.5,227.5 C 436.81,229.146 439.477,231.48 441.5,234.5C 441.892,236.179 442.392,237.846 443,239.5C 443.167,259 443.333,278.5 443.5,298C 443.5,317.845 442.833,337.345 441.5,356.5C 435.167,356.5 428.833,356.5 422.5,356.5C 422.5,355.167 422.5,353.833 422.5,352.5C 427.167,352.5 431.833,352.5 436.5,352.5C 436.667,312.832 436.5,273.165 436,233.5C 435.345,231.372 434.511,229.372 433.5,227.5 Z"/></g>
<g><path style="opacity:1" fill="#3956d5" d="M 323.5,226.5 C 328.15,228.985 331.65,232.652 334,237.5C 334.667,272.833 334.667,308.167 334,343.5C 331.921,349.247 328.088,353.414 322.5,356C 308.837,356.5 295.171,356.667 281.5,356.5C 279.833,356.5 278.167,356.5 276.5,356.5C 276.5,355.167 276.5,353.833 276.5,352.5C 290.559,352.929 304.559,352.429 318.5,351C 323.116,348.382 326.283,344.549 328,339.5C 328.667,304.5 328.667,269.5 328,234.5C 326.755,231.676 325.255,229.009 323.5,226.5 Z"/></g>
<g><path style="opacity:1" fill="#111c4b" d="M 538.5,216.5 C 538.833,216.5 539.167,216.5 539.5,216.5C 539.5,218.167 539.5,219.833 539.5,221.5C 539.5,226.5 539.5,231.5 539.5,236.5C 532.5,236.5 525.5,236.5 518.5,236.5C 524.979,235.509 531.646,235.176 538.5,235.5C 538.5,229.167 538.5,222.833 538.5,216.5 Z"/></g>
<g><path style="opacity:1" fill="#1957e8" d="M 301.5,241.5 C 298.167,241.5 294.833,241.5 291.5,241.5C 291.5,270.167 291.5,298.833 291.5,327.5C 289.5,327.5 287.5,327.5 285.5,327.5C 285.5,297.167 285.5,266.833 285.5,236.5C 290.833,236.5 296.167,236.5 301.5,236.5C 301.5,238.167 301.5,239.833 301.5,241.5 Z"/></g>
<g><path style="opacity:1" fill="#3b56cf" d="M 301.5,241.5 C 301.5,270.167 301.5,298.833 301.5,327.5C 298.167,327.5 294.833,327.5 291.5,327.5C 291.5,298.833 291.5,270.167 291.5,241.5C 294.833,241.5 298.167,241.5 301.5,241.5 Z"/></g>
<g><path style="opacity:1" fill="#4457d9" d="M 393.5,236.5 C 398.833,236.5 404.167,236.5 409.5,236.5C 409.832,247.52 409.499,258.52 408.5,269.5C 403.557,272.141 398.557,274.474 393.5,276.5C 393.5,263.167 393.5,249.833 393.5,236.5 Z"/></g>
<g><path style="opacity:1" fill="#5d5cdf" d="M 545.5,225.5 C 547.5,225.5 549.5,225.5 551.5,225.5C 551.5,232.167 551.5,238.833 551.5,245.5C 544.5,245.5 537.5,245.5 530.5,245.5C 530.5,282.5 530.5,319.5 530.5,356.5C 526.167,356.5 521.833,356.5 517.5,356.5C 515.167,356.5 512.833,356.5 510.5,356.5C 510.5,355.167 510.5,353.833 510.5,352.5C 515.167,352.5 519.833,352.5 524.5,352.5C 524.5,315.5 524.5,278.5 524.5,241.5C 531.5,241.5 538.5,241.5 545.5,241.5C 545.5,236.167 545.5,230.833 545.5,225.5 Z"/></g>
<g><path style="opacity:1" fill="#3256e0" d="M 409.5,307.5 C 408.542,307.953 407.708,308.619 407,309.5C 406.5,325.163 406.333,340.83 406.5,356.5C 399.5,356.5 392.5,356.5 385.5,356.5C 385.5,355.167 385.5,353.833 385.5,352.5C 383.5,352.5 381.5,352.5 379.5,352.5C 379.5,350.833 379.5,349.167 379.5,347.5C 384.167,347.5 388.833,347.5 393.5,347.5C 393.333,331.83 393.5,316.163 394,300.5C 398.592,297.453 403.426,294.786 408.5,292.5C 409.494,297.456 409.827,302.456 409.5,307.5 Z"/></g>
<g><path style="opacity:1" fill="#2bf91e" d="M 344.5,326.5 C 349.167,326.5 353.833,326.5 358.5,326.5C 358.5,328.167 358.5,329.833 358.5,331.5C 358.5,336.833 358.5,342.167 358.5,347.5C 353.5,347.5 348.5,347.5 343.5,347.5C 341.5,347.5 339.5,347.5 337.5,347.5C 337.5,340.5 337.5,333.5 337.5,326.5C 339.833,326.5 342.167,326.5 344.5,326.5 Z"/></g>
<g><path style="opacity:1" fill="#040307" d="M 466.5,331.5 C 466.5,336.833 466.5,342.167 466.5,347.5C 461.5,347.5 456.5,347.5 451.5,347.5C 449.5,347.5 447.5,347.5 445.5,347.5C 445.5,340.5 445.5,333.5 445.5,326.5C 452.5,326.5 459.5,326.5 466.5,326.5C 466.5,328.167 466.5,329.833 466.5,331.5 Z"/></g>
<g><path style="opacity:1" fill="#3957dd" d="M 358.5,331.5 C 360.5,331.5 362.5,331.5 364.5,331.5C 364.5,332.833 364.5,334.167 364.5,335.5C 366.5,335.5 368.5,335.5 370.5,335.5C 370.5,342.5 370.5,349.5 370.5,356.5C 369.5,356.5 368.5,356.5 367.5,356.5C 361.5,356.5 355.5,356.5 349.5,356.5C 349.5,355.167 349.5,353.833 349.5,352.5C 347.5,352.5 345.5,352.5 343.5,352.5C 343.5,350.833 343.5,349.167 343.5,347.5C 348.5,347.5 353.5,347.5 358.5,347.5C 358.5,342.167 358.5,336.833 358.5,331.5 Z"/></g>
<g><path style="opacity:1" fill="#495ae1" d="M 466.5,331.5 C 468.5,331.5 470.5,331.5 472.5,331.5C 472.5,332.833 472.5,334.167 472.5,335.5C 474.5,335.5 476.5,335.5 478.5,335.5C 478.5,342.5 478.5,349.5 478.5,356.5C 471.833,356.5 465.167,356.5 458.5,356.5C 458.5,355.167 458.5,353.833 458.5,352.5C 456.167,352.5 453.833,352.5 451.5,352.5C 451.5,350.833 451.5,349.167 451.5,347.5C 456.5,347.5 461.5,347.5 466.5,347.5C 466.5,342.167 466.5,336.833 466.5,331.5 Z"/></g>
<g><path style="opacity:1" fill="#28ff0c" d="M 281.5,357.5 C 309.5,357.5 337.5,357.5 365.5,357.5C 365.5,363.5 365.5,369.5 365.5,375.5C 331.5,375.5 297.5,375.5 263.5,375.5C 261.5,375.5 259.5,375.5 257.5,375.5C 257.5,369.5 257.5,363.5 257.5,357.5C 265.5,357.5 273.5,357.5 281.5,357.5 Z"/></g>
<g><path style="opacity:1" fill="#000000" d="M 365.5,357.5 C 366.167,357.5 366.833,357.5 367.5,357.5C 392.167,357.5 416.833,357.5 441.5,357.5C 466.833,357.5 492.167,357.5 517.5,357.5C 525.5,357.5 533.5,357.5 541.5,357.5C 541.5,363.5 541.5,369.5 541.5,375.5C 482.833,375.5 424.167,375.5 365.5,375.5C 365.5,369.5 365.5,363.5 365.5,357.5 Z"/></g>
<g><path style="opacity:1" fill="#2958ec" d="M 548.5,366.5 C 548.5,371.167 548.5,375.833 548.5,380.5C 455.5,380.5 362.5,380.5 269.5,380.5C 267.5,380.5 265.5,380.5 263.5,380.5C 263.5,378.833 263.5,377.167 263.5,375.5C 297.5,375.5 331.5,375.5 365.5,375.5C 424.167,375.5 482.833,375.5 541.5,375.5C 542.486,371.03 542.819,366.363 542.5,361.5C 544.5,361.5 546.5,361.5 548.5,361.5C 548.5,363.167 548.5,364.833 548.5,366.5 Z"/></g>
<g><path style="opacity:1" fill="#4c5adb" d="M 548.5,366.5 C 550.5,366.5 552.5,366.5 554.5,366.5C 554.5,372.5 554.5,378.5 554.5,384.5C 526.167,384.5 497.833,384.5 469.5,384.5C 432.833,384.5 396.167,384.5 359.5,384.5C 329.5,384.5 299.5,384.5 269.5,384.5C 269.5,383.167 269.5,381.833 269.5,380.5C 362.5,380.5 455.5,380.5 548.5,380.5C 548.5,375.833 548.5,371.167 548.5,366.5 Z"/></g>
<g><path style="opacity:1" fill="#5257c4" d="M 269.5,384.5 C 299.5,384.5 329.5,384.5 359.5,384.5C 359.5,384.833 359.5,385.167 359.5,385.5C 353.979,385.054 348.645,385.554 343.5,387C 343.736,457.785 343.736,528.618 343.5,599.5C 326.833,599.5 310.167,599.5 293.5,599.5C 293.597,528.284 293.931,457.117 294.5,386C 285.99,385.829 277.657,385.329 269.5,384.5 Z"/></g>
<g><path style="opacity:1" fill="#5e59c7" d="M 359.5,385.5 C 370.505,385.333 381.505,385.5 392.5,386C 391.931,457.117 391.597,528.284 391.5,599.5C 375.5,599.5 359.5,599.5 343.5,599.5C 343.736,528.618 343.736,457.785 343.5,387C 348.645,385.554 353.979,385.054 359.5,385.5 Z"/></g>
<g><path style="opacity:1" fill="#6b5bcb" d="M 359.5,385.5 C 359.5,385.167 359.5,384.833 359.5,384.5C 396.167,384.5 432.833,384.5 469.5,384.5C 460.182,385.026 450.849,385.86 441.5,387C 441.736,457.785 441.736,528.618 441.5,599.5C 424.833,599.5 408.167,599.5 391.5,599.5C 391.597,528.284 391.931,457.117 392.5,386C 381.505,385.5 370.505,385.333 359.5,385.5 Z"/></g>
<g><path style="opacity:1" fill="#8460d2" d="M 540.5,385.5 C 540.167,456.833 539.833,528.167 539.5,599.5C 522.833,599.5 506.167,599.5 489.5,599.5C 489.736,528.618 489.736,457.785 489.5,387C 506.346,385.515 523.346,385.015 540.5,385.5 Z"/></g>
<g><path style="opacity:1" fill="#755dce" d="M 469.5,384.5 C 497.833,384.5 526.167,384.5 554.5,384.5C 550.03,385.486 545.363,385.819 540.5,385.5C 523.346,385.015 506.346,385.515 489.5,387C 489.736,457.785 489.736,528.618 489.5,599.5C 473.5,599.5 457.5,599.5 441.5,599.5C 441.736,528.618 441.736,457.785 441.5,387C 450.849,385.86 460.182,385.026 469.5,384.5 Z"/></g>
</svg>
